<svg width="1400" height="257" viewBox="0 0 1400 257" fill="none" xmlns="http://www.w3.org/2000/svg">
<path d="M1360.72 233.669L1194.83 66.8052V239.513H1155.55V25.2516C1155.55 9.99361 1163.66 0.579102 1176.65 0.579102C1182.82 0.579102 1188.01 2.85158 1194.18 9.0197L1360.72 174.26V1.55303H1400V217.762C1400 233.344 1391.56 242.434 1379.55 242.434C1372.73 242.434 1366.56 239.513 1360.72 233.669Z" fill="black"/>
<path d="M806.391 239.512H597.973C585.637 239.512 574.599 232.37 574.599 218.411C574.599 212.243 577.521 206.399 583.04 200.881L739.84 42.7819H577.521V3.50073H783.991C796.002 3.50073 807.364 10.6428 807.364 24.6022C807.364 30.7703 804.443 36.6138 798.924 42.1326L642.124 200.231H806.391V239.512Z" fill="black"/>
<path d="M431.828 239.512H390.599V149.912L265.289 3.50073H320.802L412.675 112.254L504.872 3.50073H557.463L431.828 149.912V239.512Z" fill="black"/>
<path d="M165.89 173.936H71.0957V134.005H165.89C194.783 134.005 211.988 115.825 211.988 89.2051C211.988 61.9355 194.783 44.7297 165.89 44.7297H40.9044V239.512H0V3.50073H165.89C220.429 3.50073 252.244 36.2892 252.244 87.9066C252.244 138.875 220.429 173.936 165.89 173.936Z" fill="black"/>
<path d="M967.02 66.76L956.42 67.17H980.63C976.108 66.7215 971.561 66.5845 967.02 66.76Z" fill="#ED1C24"/>
<path d="M1068.32 150.81C1057.22 166.223 1041.91 178.108 1024.22 185.04L1025.52 184.25H1025.57C1033.2 179.467 1039.49 172.822 1043.85 164.94C1048.21 157.058 1050.5 148.197 1050.49 139.19V120.36C1050.5 113.372 1049.13 106.45 1046.46 99.992C1043.79 93.5339 1039.87 87.6661 1034.93 82.725C1029.99 77.7839 1024.12 73.8665 1017.66 71.1973C1011.2 68.5281 1004.28 67.1596 997.29 67.1701H980.63C976.108 66.7216 971.561 66.5846 967.02 66.7601L956.42 67.1701H938.59C931.825 67.1595 925.121 68.446 918.84 70.9601C898.293 76.3884 880.053 88.315 866.84 104.96C866.42 105.49 866 106.02 865.59 106.56C851.626 124.855 844.488 147.453 845.41 170.45L845.93 183.94C846.146 189.603 846.784 195.242 847.84 200.81C835.505 181.584 828.965 159.213 829 136.37V120.66C828.977 103.987 832.448 87.4942 839.192 72.2455C845.935 56.9969 855.8 43.3312 868.15 32.1301C868.96 31.3901 869.79 30.6601 870.62 29.9401C892.297 11.2324 919.987 0.958729 948.62 1.00012H987.01C1005.96 0.986941 1024.63 5.4817 1041.5 14.1131C1058.37 22.7446 1072.94 35.265 1084.01 50.6401C1084.37 51.1401 1084.72 51.6401 1085.06 52.1401C1085.51 55.3935 1085.8 58.6935 1085.93 62.0401L1086.93 89.0401C1087.82 111.134 1081.27 132.887 1068.32 150.81Z" fill="url(#paint0_linear_131_128)"/>
<path d="M1106.59 120.66V136.43C1106.58 168.149 1093.98 198.567 1071.55 220.995C1049.12 243.423 1018.7 256.025 986.98 256.03H948.59C931.008 256.049 913.638 252.183 897.724 244.708C881.809 237.233 867.743 226.334 856.53 212.79C853.385 209.003 850.476 205.025 847.82 200.88C846.765 195.312 846.126 189.673 845.91 184.01L845.39 170.52C844.468 147.523 851.606 124.926 865.57 106.63C865.98 106.09 866.4 105.56 866.82 105.03C880.033 88.3851 898.274 76.4585 918.82 71.0302C908.945 74.9769 900.48 81.7932 894.517 90.5989C888.555 99.4047 885.369 109.796 885.37 120.43V139.24C885.371 141.733 885.545 144.222 885.89 146.69C886.02 147.61 886.17 148.53 886.35 149.44C888.718 161.551 895.222 172.462 904.748 180.306C914.274 188.151 926.23 192.44 938.57 192.44H997.27C1005.51 192.453 1013.64 190.539 1021.01 186.85C1022.1 186.31 1023.16 185.73 1024.2 185.12C1043.33 177.608 1059.64 164.33 1070.88 147.128C1082.12 129.926 1087.73 109.653 1086.93 89.1202L1085.93 62.1202C1085.8 58.7869 1085.51 55.4869 1085.06 52.2202C1085.73 53.1802 1086.39 54.1502 1087.06 55.1302C1099.85 74.5895 1106.64 97.3756 1106.59 120.66Z" fill="url(#paint1_linear_131_128)"/>
<defs>
<linearGradient id="paint0_linear_131_128" x1="1087.01" y1="100.905" x2="829" y2="100.905" gradientUnits="userSpaceOnUse">
<stop stop-color="#14417C"/>
<stop offset="0.460806" stop-color="#247BFC"/>
<stop offset="1" stop-color="#1A4B83"/>
</linearGradient>
<linearGradient id="paint1_linear_131_128" x1="1143.24" y1="190.59" x2="819.288" y2="194.898" gradientUnits="userSpaceOnUse">
<stop stop-color="#16FBF6"/>
<stop offset="0.409787" stop-color="#1B5AAC"/>
<stop offset="0.682625" stop-color="#1870B7"/>
<stop offset="1" stop-color="#02FCFF"/>
</linearGradient>
</defs>
</svg>
